<svg width="27" height="18" viewBox="0 0 27 18" fill="none" xmlns="http://www.w3.org/2000/svg">
<path d="M0 1.5C0 0.671573 0.671573 0 1.5 0H25.5C26.3284 0 27 0.671573 27 1.5C27 2.32843 26.3284 3 25.5 3H1.5C0.671574 3 0 2.32843 0 1.5Z" fill="#6F64FE"/>
<path d="M0 8.69751C0 7.86908 0.671573 7.19751 1.5 7.19751H17.5C18.3284 7.19751 19 7.86908 19 8.69751C19 9.52594 18.3284 10.1975 17.5 10.1975H1.5C0.671573 10.1975 0 9.52594 0 8.69751Z" fill="#6F64FE"/>
<path d="M0 15.6693C0 14.8409 0.671573 14.1693 1.5 14.1693H10.5C11.3284 14.1693 12 14.8409 12 15.6693C12 16.4977 11.3284 17.1693 10.5 17.1693H1.5C0.671573 17.1693 0 16.4977 0 15.6693Z" fill="#6F64FE"/>
</svg>
