<svg width="224" height="59" viewBox="0 0 224 59" fill="none" xmlns="http://www.w3.org/2000/svg">
<path d="M69.8429 30.1499H80.8393V35.0703H64.6988V8.97717H80.6529V13.8976H69.8429V19.4517H79.721V24.2976H69.8429V30.1499ZM98.006 16.4324H102.815V35.0703H98.006V32.871C96.5647 34.6851 94.5394 35.5922 91.9301 35.5922C89.445 35.5922 87.3079 34.6479 85.5186 32.7592C83.7542 30.8457 82.872 28.5098 82.872 25.7513C82.872 22.9929 83.7542 20.6694 85.5186 18.7807C87.3079 16.8672 89.445 15.9105 91.9301 15.9105C94.5394 15.9105 96.5647 16.8175 98.006 18.6316V16.4324ZM89.1344 29.5535C90.1035 30.5227 91.3337 31.0072 92.8247 31.0072C94.3157 31.0072 95.5458 30.5227 96.515 29.5535C97.509 28.5595 98.006 27.2921 98.006 25.7513C98.006 24.2106 97.509 22.9556 96.515 21.9865C95.5458 20.9924 94.3157 20.4954 92.8247 20.4954C91.3337 20.4954 90.1035 20.9924 89.1344 21.9865C88.1652 22.9556 87.6806 24.2106 87.6806 25.7513C87.6806 27.2921 88.1652 28.5595 89.1344 29.5535ZM117.836 21.0546H113.624V28.808C113.624 29.4541 113.785 29.9262 114.108 30.2244C114.431 30.5227 114.904 30.6966 115.525 30.7463C116.146 30.7712 116.916 30.7587 117.836 30.709V35.0703C114.531 35.4431 112.195 35.1324 110.828 34.1384C109.486 33.1444 108.815 31.3676 108.815 28.808V21.0546H105.572V16.4324H108.815V12.6675L113.624 11.2137V16.4324H117.836V21.0546ZM142.13 33.5793L138.029 35.9277L135.644 33.3556C133.631 34.8467 131.295 35.5922 128.636 35.5922C125.952 35.5922 123.753 34.8964 122.038 33.5047C120.348 32.0882 119.503 30.1996 119.503 27.8388C119.503 26.298 119.876 24.8691 120.621 23.5521C121.367 22.235 122.448 21.1664 123.864 20.3463C123.02 19.0044 122.597 17.5506 122.597 15.985C122.597 13.7733 123.367 11.9717 124.908 10.58C126.449 9.16355 128.4 8.45531 130.761 8.45531C132.624 8.45531 134.289 8.93989 135.755 9.90907C137.247 10.8534 138.352 12.2326 139.073 14.0467L134.674 16.5815C133.954 14.494 132.674 13.4503 130.835 13.4503C129.94 13.4503 129.195 13.7112 128.599 14.2331C128.027 14.7549 127.741 15.4135 127.741 16.2087C127.741 16.9045 127.903 17.5382 128.226 18.1098C128.574 18.6813 129.12 19.3647 129.866 20.1599L135.457 26.2732C136.004 25.1052 136.426 23.6639 136.725 21.9492L141.049 24.4094C140.576 26.4223 139.819 28.2488 138.775 29.889L142.13 33.5793ZM128.971 30.8581C130.263 30.8581 131.419 30.5475 132.438 29.9262L126.809 23.813C126.76 23.7633 126.735 23.726 126.735 23.7012C125.368 24.5461 124.685 25.7513 124.685 27.3169C124.685 28.3855 125.045 29.2428 125.766 29.889C126.511 30.5351 127.58 30.8581 128.971 30.8581ZM159.644 35.0703L154.388 26.0123H150.474V35.0703H145.33V8.97717H155.767C158.178 8.97717 160.228 9.82209 161.918 11.5119C163.607 13.2018 164.452 15.2395 164.452 17.6252C164.452 19.2405 163.993 20.7439 163.073 22.1356C162.154 23.5024 160.936 24.5337 159.42 25.2295L165.198 35.0703H159.644ZM150.474 13.7858V21.5019H155.767C156.736 21.5019 157.569 21.1291 158.265 20.3836C158.96 19.6132 159.308 18.6938 159.308 17.6252C159.308 16.5566 158.96 15.6496 158.265 14.904C157.569 14.1585 156.736 13.7858 155.767 13.7858H150.474ZM181.222 16.4324H186.03V35.0703H181.222V32.871C179.78 34.6851 177.755 35.5922 175.146 35.5922C172.661 35.5922 170.523 34.6479 168.734 32.7592C166.97 30.8457 166.088 28.5098 166.088 25.7513C166.088 22.9929 166.97 20.6694 168.734 18.7807C170.523 16.8672 172.661 15.9105 175.146 15.9105C177.755 15.9105 179.78 16.8175 181.222 18.6316V16.4324ZM172.35 29.5535C173.319 30.5227 174.549 31.0072 176.04 31.0072C177.531 31.0072 178.761 30.5227 179.731 29.5535C180.725 28.5595 181.222 27.2921 181.222 25.7513C181.222 24.2106 180.725 22.9556 179.731 21.9865C178.761 20.9924 177.531 20.4954 176.04 20.4954C174.549 20.4954 173.319 20.9924 172.35 21.9865C171.381 22.9556 170.896 24.2106 170.896 25.7513C170.896 27.2921 171.381 28.5595 172.35 29.5535ZM201.052 21.0546H196.839V28.808C196.839 29.4541 197.001 29.9262 197.324 30.2244C197.647 30.5227 198.119 30.6966 198.74 30.7463C199.362 30.7712 200.132 30.7587 201.052 30.709V35.0703C197.746 35.4431 195.41 35.1324 194.044 34.1384C192.702 33.1444 192.031 31.3676 192.031 28.808V21.0546H188.788V16.4324H192.031V12.6675L196.839 11.2137V16.4324H201.052V21.0546ZM207.923 27.727C208.569 30.0629 210.321 31.2309 213.178 31.2309C215.017 31.2309 216.409 30.6096 217.353 29.3671L221.23 31.6037C219.391 34.2627 216.682 35.5922 213.104 35.5922C210.022 35.5922 207.55 34.6603 205.686 32.7965C203.822 30.9327 202.89 28.5843 202.89 25.7513C202.89 22.9432 203.81 20.6073 205.649 18.7435C207.488 16.8548 209.848 15.9105 212.731 15.9105C215.465 15.9105 217.714 16.8548 219.478 18.7435C221.267 20.6321 222.162 22.9681 222.162 25.7513C222.162 26.3726 222.1 27.0311 221.976 27.727H207.923ZM207.848 23.9994H217.353C217.08 22.732 216.508 21.7877 215.639 21.1664C214.794 20.5451 213.825 20.2345 212.731 20.2345C211.439 20.2345 210.37 20.57 209.525 21.2409C208.68 21.8871 208.121 22.8065 207.848 23.9994Z" fill="#BDBDBD"/>
<path d="M52.4767 34.0439C53.3347 34.0439 54.175 34.1205 54.9904 34.2686C52.6523 45.3039 43.6206 53.8649 32.3429 55.5029C32.3054 55.0854 32.2853 54.6626 32.2853 54.2354V48.0225C32.2854 40.3023 38.5436 34.0441 46.2638 34.0439H52.4767ZM28.4025 1.42578C41.0314 1.42595 51.6471 10.0397 54.6993 21.7119C53.9666 21.6508 53.2252 21.6182 52.4767 21.6182H46.2638C43.7815 21.6182 41.3793 21.9611 39.1017 22.6016C36.9989 18.8634 32.9969 16.3371 28.4025 16.3369C21.6255 16.3369 16.131 21.8304 16.131 28.6074C16.131 32.8364 18.271 36.565 21.5265 38.7715C20.4493 41.6505 19.8595 44.7675 19.8595 48.0225V54.2354C19.8595 54.2959 19.861 54.3565 19.8615 54.417C9.03412 50.836 1.22083 40.6353 1.22083 28.6074C1.22083 13.5956 13.3907 1.42578 28.4025 1.42578Z" fill="#BDBDBD"/>
<path d="M56.0427 22.0037L56.8013 22.0139L56.8236 21.1416L56.0427 21.1313H49.0283C32.322 21.1313 18.3405 35.0418 18.3405 51.6632L18.3302 57.0148L18.3405 57.7917L19.2173 57.7696L19.207 57.0148L19.2173 51.6632C19.2173 35.5236 32.8062 22.0037 49.0283 22.0037H56.0427Z" fill="#BDBDBD"/>
<path d="M74.6444 52.4321H72.5608L67.0411 46.291V52.4321H65.3413V39.638H67.0411V45.4137L72.3781 39.638H74.4617L68.814 45.8523L74.6444 52.4321ZM81.8009 43.2935H83.5006L79.7721 52.9987C79.3822 54.0344 78.8338 54.8204 78.1271 55.3565C77.4204 55.9048 76.6162 56.1485 75.7145 56.0876V54.6071C76.8355 54.6924 77.658 54.0832 78.182 52.7794L78.3282 52.4504L74.362 43.2935H76.0435L79.1689 50.4582L81.8009 43.2935ZM95.7583 43.2935H97.3484V52.4321H84.8285V43.2935H86.4186V50.9151H90.2934V43.2935H91.8835V50.9151H95.7583V43.2935ZM107.353 43.2935H108.943V52.4321H107.353V50.8603C106.561 52.0666 105.409 52.6697 103.898 52.6697C102.619 52.6697 101.528 52.2067 100.627 51.2807C99.7249 50.3424 99.2741 49.2031 99.2741 47.8628C99.2741 46.5225 99.7249 45.3893 100.627 44.4632C101.528 43.525 102.619 43.0559 103.898 43.0559C105.409 43.0559 106.561 43.659 107.353 44.8653V43.2935ZM104.099 51.1344C105.025 51.1344 105.799 50.8237 106.421 50.2023C107.042 49.5687 107.353 48.7889 107.353 47.8628C107.353 46.9368 107.042 46.163 106.421 45.5416C105.799 44.908 105.025 44.5912 104.099 44.5912C103.185 44.5912 102.418 44.908 101.796 45.5416C101.175 46.163 100.864 46.9368 100.864 47.8628C100.864 48.7889 101.175 49.5687 101.796 50.2023C102.418 50.8237 103.185 51.1344 104.099 51.1344ZM112.851 41.9227V40.5336H117.786V41.9227H112.851ZM117.987 43.2935H119.266V52.4321H117.694V46.0168L112.631 52.4321H111.352V43.2935H112.924V49.7088L117.987 43.2935ZM132.89 43.2935H134.17V52.4321H132.598V46.0168L127.535 52.4321H126.256V43.2935H127.828V49.7088L132.89 43.2935ZM148.873 51.2807C147.934 52.2067 146.795 52.6697 145.455 52.6697C144.114 52.6697 142.975 52.2067 142.037 51.2807C141.111 50.3546 140.648 49.2153 140.648 47.8628C140.648 46.5103 141.111 45.371 142.037 44.445C142.975 43.5189 144.114 43.0559 145.455 43.0559C146.795 43.0559 147.934 43.5189 148.873 44.445C149.811 45.371 150.28 46.5103 150.28 47.8628C150.28 49.2153 149.811 50.3546 148.873 51.2807ZM145.455 51.1162C146.369 51.1162 147.136 50.8055 147.758 50.184C148.379 49.5626 148.69 48.7889 148.69 47.8628C148.69 46.9368 148.379 46.163 147.758 45.5416C147.136 44.9202 146.369 44.6094 145.455 44.6094C144.553 44.6094 143.792 44.9202 143.17 45.5416C142.549 46.163 142.238 46.9368 142.238 47.8628C142.238 48.7889 142.549 49.5626 143.17 50.184C143.792 50.8055 144.553 51.1162 145.455 51.1162ZM159.831 50.9151H161.33V54.8813H159.758V52.4321H152.155V43.2935H153.745V50.9151H158.241V43.2935H159.831V50.9151ZM163.782 48.5939C163.941 49.4103 164.313 50.0439 164.897 50.4947C165.494 50.9456 166.226 51.171 167.091 51.171C168.297 51.171 169.174 50.7262 169.723 49.8368L171.075 50.6044C170.186 51.9813 168.845 52.6697 167.054 52.6697C165.604 52.6697 164.422 52.2189 163.508 51.3172C162.607 50.4033 162.156 49.2519 162.156 47.8628C162.156 46.4859 162.601 45.3405 163.49 44.4267C164.38 43.5128 165.531 43.0559 166.944 43.0559C168.285 43.0559 169.375 43.5311 170.216 44.4815C171.069 45.4197 171.496 46.5529 171.496 47.8811C171.496 48.1126 171.477 48.3502 171.441 48.5939H163.782ZM166.944 44.5546C166.092 44.5546 165.385 44.7983 164.824 45.2857C164.264 45.7609 163.917 46.4006 163.782 47.2048H169.887C169.753 46.3397 169.412 45.6817 168.864 45.2309C168.315 44.78 167.676 44.5546 166.944 44.5546ZM179.647 43.2935H181.237V52.4321H179.647V48.6122H174.914V52.4321H173.323V43.2935H174.914V47.0952H179.647V43.2935ZM190.293 43.2935H191.572V52.4321H190V46.0168L184.937 52.4321H183.658V43.2935H185.23V49.7088L190.293 43.2935ZM200.079 47.7349C201.017 48.1248 201.486 48.8315 201.486 49.855C201.486 50.6105 201.23 51.2319 200.718 51.7193C200.219 52.1945 199.5 52.4321 198.562 52.4321H193.992V43.2935H198.196C199.11 43.2935 199.817 43.525 200.316 43.988C200.816 44.4389 201.066 45.0359 201.066 45.7792C201.066 46.6565 200.737 47.3084 200.079 47.7349ZM198.123 44.7191H195.546V47.1134H198.123C199.049 47.1134 199.512 46.7052 199.512 45.8889C199.512 45.109 199.049 44.7191 198.123 44.7191ZM198.47 50.9882C198.933 50.9882 199.287 50.8786 199.53 50.6592C199.786 50.4399 199.914 50.1292 199.914 49.7271C199.914 49.3494 199.786 49.0569 199.53 48.8498C199.287 48.6305 198.933 48.5208 198.47 48.5208H195.546V50.9882H198.47ZM210.769 43.2935H212.359V52.4321H210.769V50.8603C209.977 52.0666 208.826 52.6697 207.315 52.6697C206.035 52.6697 204.945 52.2067 204.043 51.2807C203.142 50.3424 202.691 49.2031 202.691 47.8628C202.691 46.5225 203.142 45.3893 204.043 44.4632C204.945 43.525 206.035 43.0559 207.315 43.0559C208.826 43.0559 209.977 43.659 210.769 44.8653V43.2935ZM207.516 51.1344C208.442 51.1344 209.216 50.8237 209.837 50.2023C210.459 49.5687 210.769 48.7889 210.769 47.8628C210.769 46.9368 210.459 46.163 209.837 45.5416C209.216 44.908 208.442 44.5912 207.516 44.5912C206.602 44.5912 205.834 44.908 205.213 45.5416C204.592 46.163 204.281 46.9368 204.281 47.8628C204.281 48.7889 204.592 49.5687 205.213 50.2023C205.834 50.8237 206.602 51.1344 207.516 51.1344ZM216.267 41.9227V40.5336H221.202V41.9227H216.267ZM221.403 43.2935H222.683V52.4321H221.111V46.0168L216.048 52.4321H214.769V43.2935H216.34V49.7088L221.403 43.2935Z" fill="#BDBDBD"/>
</svg>
