<svg width="229" height="41" viewBox="0 0 229 41" fill="none" xmlns="http://www.w3.org/2000/svg">
<path d="M54.466 22.6353H60.956V25.5393H51.43V10.1393H60.846V13.0433H54.466V16.3213H60.296V19.1813H54.466V22.6353ZM71.0877 14.5393H73.9257V25.5393H71.0877V24.2413C70.237 25.312 69.0417 25.8473 67.5017 25.8473C66.035 25.8473 64.7737 25.29 63.7177 24.1753C62.6764 23.046 62.1557 21.6673 62.1557 20.0393C62.1557 18.4113 62.6764 17.04 63.7177 15.9253C64.7737 14.796 66.035 14.2313 67.5017 14.2313C69.0417 14.2313 70.237 14.7666 71.0877 15.8373V14.5393ZM65.8517 22.2833C66.4237 22.8553 67.1497 23.1413 68.0297 23.1413C68.9097 23.1413 69.6357 22.8553 70.2077 22.2833C70.7944 21.6966 71.0877 20.9486 71.0877 20.0393C71.0877 19.13 70.7944 18.3893 70.2077 17.8173C69.6357 17.2306 68.9097 16.9373 68.0297 16.9373C67.1497 16.9373 66.4237 17.2306 65.8517 17.8173C65.2797 18.3893 64.9937 19.13 64.9937 20.0393C64.9937 20.9486 65.2797 21.6966 65.8517 22.2833ZM82.7912 17.2673H80.3052V21.8433C80.3052 22.2246 80.4005 22.5033 80.5912 22.6793C80.7818 22.8553 81.0605 22.958 81.4272 22.9873C81.7938 23.002 82.2485 22.9946 82.7912 22.9653V25.5393C80.8405 25.7593 79.4618 25.576 78.6552 24.9893C77.8632 24.4026 77.4672 23.354 77.4672 21.8433V17.2673H75.5532V14.5393H77.4672V12.3173L80.3052 11.4593V14.5393H82.7912V17.2673ZM97.1292 24.6593L94.7092 26.0453L93.3012 24.5273C92.1132 25.4073 90.7345 25.8473 89.1652 25.8473C87.5812 25.8473 86.2832 25.4366 85.2712 24.6153C84.2738 23.7793 83.7752 22.6646 83.7752 21.2713C83.7752 20.362 83.9952 19.5186 84.4352 18.7413C84.8752 17.964 85.5132 17.3333 86.3492 16.8493C85.8505 16.0573 85.6012 15.1993 85.6012 14.2753C85.6012 12.97 86.0558 11.9066 86.9652 11.0853C87.8745 10.2493 89.0258 9.83131 90.4192 9.83131C91.5192 9.83131 92.5018 10.1173 93.3672 10.6893C94.2472 11.2466 94.8998 12.0606 95.3252 13.1313L92.7292 14.6273C92.3038 13.3953 91.5485 12.7793 90.4632 12.7793C89.9352 12.7793 89.4952 12.9333 89.1432 13.2413C88.8058 13.5493 88.6372 13.938 88.6372 14.4073C88.6372 14.818 88.7325 15.192 88.9232 15.5293C89.1285 15.8666 89.4512 16.27 89.8912 16.7393L93.1912 20.3473C93.5138 19.658 93.7632 18.8073 93.9392 17.7953L96.4912 19.2473C96.2125 20.4353 95.7652 21.5133 95.1492 22.4813L97.1292 24.6593ZM89.3632 23.0533C90.1258 23.0533 90.8078 22.87 91.4092 22.5033L88.0872 18.8953C88.0578 18.866 88.0432 18.844 88.0432 18.8293C87.2365 19.328 86.8332 20.0393 86.8332 20.9633C86.8332 21.594 87.0458 22.1 87.4712 22.4813C87.9112 22.8626 88.5418 23.0533 89.3632 23.0533ZM107.466 25.5393L104.364 20.1933H102.054V25.5393H99.0179V10.1393H105.178C106.601 10.1393 107.811 10.638 108.808 11.6353C109.805 12.6326 110.304 13.8353 110.304 15.2433C110.304 16.1966 110.033 17.084 109.49 17.9053C108.947 18.712 108.229 19.3206 107.334 19.7313L110.744 25.5393H107.466ZM102.054 12.9773V17.5313H105.178C105.75 17.5313 106.241 17.3113 106.652 16.8713C107.063 16.4166 107.268 15.874 107.268 15.2433C107.268 14.6126 107.063 14.0773 106.652 13.6373C106.241 13.1973 105.75 12.9773 105.178 12.9773H102.054ZM120.201 14.5393H123.039V25.5393H120.201V24.2413C119.35 25.312 118.155 25.8473 116.615 25.8473C115.148 25.8473 113.887 25.29 112.831 24.1753C111.79 23.046 111.269 21.6673 111.269 20.0393C111.269 18.4113 111.79 17.04 112.831 15.9253C113.887 14.796 115.148 14.2313 116.615 14.2313C118.155 14.2313 119.35 14.7666 120.201 15.8373V14.5393ZM114.965 22.2833C115.537 22.8553 116.263 23.1413 117.143 23.1413C118.023 23.1413 118.749 22.8553 119.321 22.2833C119.908 21.6966 120.201 20.9486 120.201 20.0393C120.201 19.13 119.908 18.3893 119.321 17.8173C118.749 17.2306 118.023 16.9373 117.143 16.9373C116.263 16.9373 115.537 17.2306 114.965 17.8173C114.393 18.3893 114.107 19.13 114.107 20.0393C114.107 20.9486 114.393 21.6966 114.965 22.2833ZM131.904 17.2673H129.418V21.8433C129.418 22.2246 129.514 22.5033 129.704 22.6793C129.895 22.8553 130.174 22.958 130.54 22.9873C130.907 23.002 131.362 22.9946 131.904 22.9653V25.5393C129.954 25.7593 128.575 25.576 127.768 24.9893C126.976 24.4026 126.58 23.354 126.58 21.8433V17.2673H124.666V14.5393H126.58V12.3173L129.418 11.4593V14.5393H131.904V17.2673ZM135.96 21.2053C136.341 22.584 137.375 23.2733 139.062 23.2733C140.147 23.2733 140.968 22.9066 141.526 22.1733L143.814 23.4933C142.728 25.0626 141.13 25.8473 139.018 25.8473C137.199 25.8473 135.74 25.2973 134.64 24.1973C133.54 23.0973 132.99 21.7113 132.99 20.0393C132.99 18.382 133.532 17.0033 134.618 15.9033C135.703 14.7886 137.096 14.2313 138.798 14.2313C140.411 14.2313 141.738 14.7886 142.78 15.9033C143.836 17.018 144.364 18.3966 144.364 20.0393C144.364 20.406 144.327 20.7946 144.254 21.2053H135.96ZM135.916 19.0053H141.526C141.364 18.2573 141.027 17.7 140.514 17.3333C140.015 16.9666 139.443 16.7833 138.798 16.7833C138.035 16.7833 137.404 16.9813 136.906 17.3773C136.407 17.7586 136.077 18.3013 135.916 19.0053Z" fill="black"/>
<path d="M38.3486 24.4043C38.9904 24.4043 39.6187 24.4645 40.2285 24.5752C38.4783 32.8299 31.7225 39.2332 23.2861 40.459C23.2581 40.1469 23.2422 39.8311 23.2422 39.5117V34.8633C23.2422 29.087 27.9249 24.4043 33.7012 24.4043H38.3486ZM20.3369 0C29.7854 0.000125736 37.7277 6.44423 40.0117 15.1768C39.4635 15.1311 38.9086 15.1074 38.3486 15.1074H33.7012C31.8435 15.1074 30.0452 15.3634 28.3408 15.8428C26.7674 13.0464 23.774 11.1564 20.3369 11.1562C15.2665 11.1562 11.1553 15.2665 11.1553 20.3369C11.1553 23.5008 12.7559 26.2915 15.1914 27.9424C14.3857 30.0962 13.9453 32.4284 13.9453 34.8633V39.5117C13.9453 39.557 13.946 39.6022 13.9463 39.6475C5.84558 36.9682 1.40414e-05 29.3359 0 20.3369C0 9.1053 9.1053 0 20.3369 0Z" fill="#6F64FE"/>
</svg>
