<svg width="86" height="38" viewBox="0 0 86 38" fill="none" xmlns="http://www.w3.org/2000/svg">
<path d="M38.8822 22.053V13.3257H44.7629V14.847H40.7274V16.9266H44.4604V18.4479H40.7274V20.5317H44.78V22.053H38.8822ZM48.0623 22.1766C47.6447 22.1766 47.2725 22.1041 46.9458 21.9593C46.6191 21.8115 46.3606 21.5942 46.1702 21.3073C45.9827 21.0175 45.889 20.6567 45.889 20.2249C45.889 19.8612 45.9557 19.5558 46.0893 19.3087C46.2228 19.0615 46.4046 18.8627 46.6347 18.7121C46.8648 18.5615 47.1262 18.4479 47.4188 18.3712C47.7143 18.2945 48.0239 18.2405 48.3478 18.2093C48.7285 18.1695 49.0353 18.1326 49.2682 18.0985C49.5012 18.0615 49.6702 18.0076 49.7753 17.9365C49.8805 17.8655 49.933 17.7604 49.933 17.6212V17.5956C49.933 17.3257 49.8478 17.1169 49.6773 16.9692C49.5097 16.8215 49.2711 16.7476 48.9614 16.7476C48.6347 16.7476 48.3748 16.8201 48.1816 16.9649C47.9884 17.107 47.8606 17.286 47.7981 17.5019L46.1191 17.3655C46.2043 16.9678 46.3719 16.624 46.6219 16.3343C46.8719 16.0416 47.1944 15.8172 47.5893 15.661C47.987 15.5019 48.4472 15.4223 48.9699 15.4223C49.3336 15.4223 49.6816 15.4649 50.014 15.5502C50.3492 15.6354 50.6461 15.7675 50.9046 15.9465C51.166 16.1255 51.3719 16.3556 51.5225 16.6368C51.6731 16.9152 51.7484 17.249 51.7484 17.6382V22.053H50.0268V21.1453H49.9756C49.8705 21.3499 49.7299 21.5303 49.5538 21.6865C49.3776 21.8399 49.166 21.9607 48.9188 22.0487C48.6717 22.134 48.3861 22.1766 48.0623 22.1766ZM48.5822 20.9237C48.8492 20.9237 49.085 20.8712 49.2895 20.7661C49.4941 20.6581 49.6546 20.5132 49.7711 20.3314C49.8876 20.1496 49.9458 19.9436 49.9458 19.7135V19.0189C49.889 19.0558 49.8109 19.0899 49.7114 19.1212C49.6148 19.1496 49.5055 19.1766 49.3833 19.2022C49.2611 19.2249 49.139 19.2462 49.0168 19.2661C48.8947 19.2831 48.7839 19.2987 48.6844 19.313C48.4714 19.3442 48.2853 19.3939 48.1262 19.4621C47.9671 19.5303 47.8435 19.6226 47.7555 19.7391C47.6674 19.8527 47.6234 19.9948 47.6234 20.1652C47.6234 20.4124 47.7128 20.6013 47.8918 20.732C48.0736 20.8598 48.3038 20.9237 48.5822 20.9237ZM56.6383 15.5076V16.8712H52.6965V15.5076H56.6383ZM53.5914 13.9394H55.4067V20.0416C55.4067 20.2093 55.4323 20.3399 55.4834 20.4337C55.5346 20.5246 55.6056 20.5885 55.6965 20.6255C55.7903 20.6624 55.8982 20.6808 56.0204 20.6808C56.1056 20.6808 56.1908 20.6737 56.2761 20.6595C56.3613 20.6425 56.4266 20.6297 56.4721 20.6212L56.7576 21.972C56.6667 22.0005 56.5388 22.0331 56.3741 22.0701C56.2093 22.1098 56.009 22.134 55.7732 22.1425C55.3357 22.1595 54.9522 22.1013 54.6226 21.9678C54.2959 21.8343 54.0417 21.6269 53.8599 21.3456C53.678 21.0644 53.5886 20.7093 53.5914 20.2803V13.9394ZM60.4969 22.1808C59.8947 22.1808 59.3748 22.0729 58.9373 21.857C58.4998 21.6411 58.1631 21.3485 57.9273 20.9791C57.6944 20.607 57.5779 20.1922 57.5779 19.7348C57.5779 19.3939 57.6461 19.0914 57.7824 18.8272C57.9188 18.563 58.1092 18.3201 58.3535 18.0985C58.5978 17.874 58.8819 17.651 59.2057 17.4294L60.8975 16.3172C61.1163 16.178 61.2768 16.0317 61.379 15.8783C61.4813 15.722 61.5324 15.553 61.5324 15.3712C61.5324 15.1979 61.4628 15.0374 61.3236 14.8897C61.1844 14.7419 60.987 14.6695 60.7313 14.6723C60.5609 14.6723 60.4131 14.7107 60.2881 14.7874C60.1631 14.8612 60.0651 14.9593 59.9941 15.0814C59.9259 15.2007 59.8918 15.3343 59.8918 15.482C59.8918 15.6638 59.943 15.8485 60.0452 16.036C60.1475 16.2235 60.2839 16.4223 60.4543 16.6326C60.6248 16.8399 60.8109 17.0644 61.0126 17.3058L65.1503 22.053H63.2583L59.8066 18.2093C59.5793 17.9507 59.352 17.6808 59.1248 17.3996C58.9003 17.1155 58.7128 16.8144 58.5623 16.4962C58.4117 16.1752 58.3364 15.8272 58.3364 15.4522C58.3364 15.0289 58.4344 14.6482 58.6305 14.3101C58.8293 13.972 59.1077 13.705 59.4657 13.509C59.8236 13.3101 60.2413 13.2107 60.7185 13.2107C61.1844 13.2107 61.5864 13.3058 61.9245 13.4962C62.2654 13.6837 62.5268 13.9337 62.7086 14.2462C62.8932 14.5558 62.9856 14.8968 62.9856 15.2689C62.9856 15.6808 62.8833 16.0544 62.6788 16.3897C62.477 16.722 62.193 17.0203 61.8265 17.2845L60.0452 18.5672C59.8038 18.7433 59.6248 18.9237 59.5083 19.1084C59.3947 19.2902 59.3378 19.4649 59.3378 19.6326C59.3378 19.8399 59.389 20.026 59.4913 20.1908C59.5935 20.3556 59.7384 20.4862 59.9259 20.5828C60.1134 20.6766 60.3336 20.7235 60.5864 20.7235C60.8932 20.7235 61.1958 20.6539 61.4941 20.5147C61.7952 20.3726 62.068 20.1723 62.3123 19.9138C62.5594 19.6524 62.7569 19.3428 62.9046 18.9848C63.0523 18.6269 63.1262 18.2306 63.1262 17.7959H64.6305C64.6305 18.33 64.5722 18.8115 64.4557 19.2405C64.3393 19.6666 64.1773 20.0388 63.9699 20.357C63.7626 20.6723 63.5253 20.9308 63.2583 21.1326C63.1731 21.1865 63.0907 21.2377 63.0111 21.286C62.9316 21.3343 62.8492 21.3854 62.764 21.4394C62.4401 21.7007 62.0779 21.8897 61.6773 22.0061C61.2796 22.1226 60.8861 22.1808 60.4969 22.1808ZM65.9408 22.053V13.3257H69.384C70.0431 13.3257 70.6056 13.4436 71.0715 13.6794C71.5403 13.9124 71.8968 14.2433 72.1411 14.6723C72.3883 15.0985 72.5119 15.5999 72.5119 16.1766C72.5119 16.7561 72.3869 17.2547 72.1369 17.6723C71.8869 18.0871 71.5246 18.4053 71.0502 18.6269C70.5786 18.8485 70.0076 18.9593 69.3371 18.9593H67.0317V17.4763H69.0388C69.3911 17.4763 69.6837 17.428 69.9167 17.3314C70.1496 17.2348 70.3229 17.0899 70.4366 16.8968C70.553 16.7036 70.6113 16.4635 70.6113 16.1766C70.6113 15.8868 70.553 15.6425 70.4366 15.4436C70.3229 15.2448 70.1482 15.0942 69.9124 14.9919C69.6795 14.8868 69.3854 14.8343 69.0303 14.8343H67.786V22.053H65.9408ZM70.6539 18.0814L72.8229 22.053H70.786L68.6638 18.0814H70.6539ZM40.7146 37.1766C40.297 37.1766 39.9248 37.1041 39.5981 36.9593C39.2714 36.8115 39.0129 36.5942 38.8226 36.3073C38.6351 36.0175 38.5413 35.6567 38.5413 35.2249C38.5413 34.8612 38.6081 34.5558 38.7416 34.3087C38.8751 34.0615 39.0569 33.8627 39.2871 33.7121C39.5172 33.5615 39.7785 33.4479 40.0712 33.3712C40.3666 33.2945 40.6763 33.2405 41.0001 33.2093C41.3808 33.1695 41.6876 33.1326 41.9206 33.0985C42.1535 33.0615 42.3226 33.0076 42.4277 32.9365C42.5328 32.8655 42.5854 32.7604 42.5854 32.6212V32.5956C42.5854 32.3257 42.5001 32.1169 42.3297 31.9692C42.1621 31.8215 41.9234 31.7476 41.6138 31.7476C41.2871 31.7476 41.0271 31.8201 40.8339 31.9649C40.6408 32.107 40.5129 32.286 40.4504 32.5019L38.7714 32.3655C38.8567 31.9678 39.0243 31.624 39.2743 31.3343C39.5243 31.0416 39.8467 30.8172 40.2416 30.661C40.6393 30.5019 41.0996 30.4223 41.6223 30.4223C41.9859 30.4223 42.3339 30.4649 42.6663 30.5502C43.0016 30.6354 43.2984 30.7675 43.5569 30.9465C43.8183 31.1255 44.0243 31.3556 44.1748 31.6368C44.3254 31.9152 44.4007 32.249 44.4007 32.6382V37.053H42.6791V36.1453H42.628C42.5229 36.3499 42.3822 36.5303 42.2061 36.6865C42.03 36.8399 41.8183 36.9607 41.5712 37.0487C41.324 37.134 41.0385 37.1766 40.7146 37.1766ZM41.2345 35.9237C41.5016 35.9237 41.7373 35.8712 41.9419 35.7661C42.1464 35.6581 42.3069 35.5132 42.4234 35.3314C42.5399 35.1496 42.5981 34.9436 42.5981 34.7135V34.0189C42.5413 34.0558 42.4632 34.0899 42.3638 34.1212C42.2672 34.1496 42.1578 34.1766 42.0356 34.2022C41.9135 34.2249 41.7913 34.2462 41.6692 34.2661C41.547 34.2831 41.4362 34.2987 41.3368 34.313C41.1237 34.3442 40.9376 34.3939 40.7785 34.4621C40.6194 34.5303 40.4959 34.6226 40.4078 34.7391C40.3197 34.8527 40.2757 34.9948 40.2757 35.1652C40.2757 35.4124 40.3652 35.6013 40.5442 35.732C40.726 35.8598 40.9561 35.9237 41.2345 35.9237ZM49.2906 30.5076V31.8712H45.3489V30.5076H49.2906ZM46.2437 28.9394H48.0591V35.0416C48.0591 35.2093 48.0846 35.3399 48.1358 35.4337C48.1869 35.5246 48.2579 35.5885 48.3489 35.6255C48.4426 35.6624 48.5506 35.6808 48.6727 35.6808C48.7579 35.6808 48.8432 35.6737 48.9284 35.6595C49.0136 35.6425 49.079 35.6297 49.1244 35.6212L49.4099 36.972C49.319 37.0005 49.1912 37.0331 49.0264 37.0701C48.8616 37.1098 48.6614 37.134 48.4256 37.1425C47.9881 37.1595 47.6045 37.1013 47.275 36.9678C46.9483 36.8343 46.694 36.6269 46.5122 36.3456C46.3304 36.0644 46.2409 35.7093 46.2437 35.2803V28.9394ZM53.3858 37.1808C52.7125 37.1808 52.1329 37.0445 51.6471 36.7718C51.1642 36.4962 50.792 36.107 50.5307 35.6041C50.2693 35.0985 50.1386 34.5005 50.1386 33.8101C50.1386 33.1368 50.2693 32.5459 50.5307 32.0374C50.792 31.5289 51.1599 31.1326 51.6344 30.8485C52.1116 30.5644 52.6713 30.4223 53.3133 30.4223C53.7452 30.4223 54.1471 30.4919 54.5193 30.6311C54.8943 30.7675 55.221 30.9735 55.4994 31.249C55.7807 31.5246 55.9994 31.8712 56.1557 32.2888C56.3119 32.7036 56.39 33.1894 56.39 33.7462V34.2448H50.8631V33.1198H54.6812C54.6812 32.8584 54.6244 32.6269 54.5108 32.4252C54.3971 32.2235 54.2395 32.0658 54.0378 31.9522C53.8389 31.8357 53.6074 31.7774 53.3432 31.7774C53.0676 31.7774 52.8233 31.8414 52.6102 31.9692C52.4 32.0942 52.2352 32.2632 52.1159 32.4763C51.9966 32.6865 51.9355 32.9209 51.9327 33.1794V34.249C51.9327 34.5729 51.9923 34.8527 52.1116 35.0885C52.2338 35.3243 52.4057 35.5061 52.6273 35.634C52.8489 35.7618 53.1116 35.8257 53.4156 35.8257C53.6173 35.8257 53.802 35.7973 53.9696 35.7405C54.1372 35.6837 54.2807 35.5985 54.4 35.4848C54.5193 35.3712 54.6102 35.232 54.6727 35.0672L56.3517 35.178C56.2665 35.5814 56.0918 35.9337 55.8275 36.2348C55.5662 36.5331 55.2281 36.7661 54.8133 36.9337C54.4014 37.0985 53.9256 37.1808 53.3858 37.1808Z" fill="#312F45"/>
<path d="M29.2578 21.1113C29.7477 21.1113 30.2268 21.1639 30.6924 21.2598C29.357 28.4006 24.2019 33.9396 17.7656 35C17.7442 34.7301 17.7324 34.4569 17.7324 34.1807V30.1592C17.7324 25.1624 21.3042 21.1116 25.7109 21.1113H29.2578ZM15.5156 0C22.7244 8.30885e-05 28.7831 5.57512 30.5254 13.1299C30.1074 13.0904 29.6848 13.0693 29.2578 13.0693H25.7109C24.2941 13.0694 22.923 13.2906 21.623 13.7051C20.4227 11.2857 18.1382 9.65046 15.5156 9.65039C11.6472 9.65039 8.51074 13.2064 8.51074 17.5928C8.51074 20.3298 9.7327 22.7427 11.5908 24.1709C10.9759 26.0345 10.6396 28.0523 10.6396 30.1592V34.1807C10.6396 34.2198 10.6404 34.2588 10.6406 34.2979C4.46014 31.9802 0 25.3778 0 17.5928C9.09096e-07 7.87655 6.94667 0 15.5156 0Z" fill="#2E8F18"/>
<path d="M29.2577 13.0689L29.6413 13.0748L29.6525 12.5722L29.2577 12.5663H25.7113C17.2648 12.5663 10.1959 20.5816 10.1959 30.159L10.1907 33.2427L10.1959 33.6904L10.6392 33.6776L10.634 33.2427L10.6392 30.159C10.6392 20.8592 17.5096 13.0689 25.7113 13.0689H29.2577Z" fill="#2E8F18"/>
</svg>
