<svg width="297" height="298" viewBox="0 0 297 298" fill="none" xmlns="http://www.w3.org/2000/svg">
<path d="M283.145 179.673C287.874 179.673 292.505 180.1 296.999 180.917C284.118 241.706 234.356 288.871 172.23 297.892C172.023 295.589 171.918 293.257 171.918 290.9V256.677C171.918 214.149 206.393 179.673 248.921 179.673H283.145Z" fill="#6F64FE"/>
<path d="M150.528 0C220.094 0.000152625 278.575 47.4421 295.391 111.736C291.353 111.4 287.269 111.227 283.145 111.227H248.921C235.252 111.227 222.024 113.113 209.481 116.638C197.898 96.0449 175.838 82.1339 150.528 82.1338C113.197 82.1338 82.9338 112.397 82.9336 149.728C82.9336 173.022 94.7173 193.564 112.648 205.719C106.716 221.577 103.471 238.748 103.471 256.677V290.9C103.471 291.237 103.474 291.574 103.477 291.91C43.835 272.184 0.799805 215.983 0.799805 149.728C0.799984 67.0351 67.8358 0 150.528 0Z" fill="#6F64FE"/>
</svg>
