<svg width="151" height="40" viewBox="0 0 151 40" fill="none" xmlns="http://www.w3.org/2000/svg">
<path d="M47.1033 25.2288H54.5195V28.5472H43.6341V10.9495H54.3938V14.268H47.1033V18.0138H53.7653V21.2819H47.1033V25.2288ZM66.097 15.9775H69.34V28.5472H66.097V27.064C65.125 28.2875 63.7591 28.8992 61.9993 28.8992C60.3233 28.8992 58.882 28.2623 57.6753 26.9886C56.4854 25.6981 55.8904 24.1227 55.8904 22.2623C55.8904 20.402 56.4854 18.835 57.6753 17.5613C58.882 16.2708 60.3233 15.6255 61.9993 15.6255C63.7591 15.6255 65.125 16.2372 66.097 17.4607V15.9775ZM60.1138 24.8266C60.7675 25.4802 61.5971 25.807 62.6026 25.807C63.6082 25.807 64.4378 25.4802 65.0915 24.8266C65.7618 24.1562 66.097 23.3014 66.097 22.2623C66.097 21.2232 65.7618 20.3769 65.0915 19.7233C64.4378 19.0529 63.6082 18.7177 62.6026 18.7177C61.5971 18.7177 60.7675 19.0529 60.1138 19.7233C59.4602 20.3769 59.1334 21.2232 59.1334 22.2623C59.1334 23.3014 59.4602 24.1562 60.1138 24.8266ZM79.4707 19.0948H76.6299V24.3238C76.6299 24.7595 76.7389 25.078 76.9567 25.2791C77.1746 25.4802 77.493 25.5975 77.912 25.631C78.331 25.6478 78.8506 25.6394 79.4707 25.6059V28.5472C77.2417 28.7986 75.6662 28.5891 74.7445 27.9187C73.8394 27.2484 73.3869 26.05 73.3869 24.3238V19.0948H71.1998V15.9775H73.3869V13.4384L76.6299 12.4579V15.9775H79.4707V19.0948ZM95.8548 27.5417L93.0895 29.1254L91.4805 27.3908C90.123 28.3964 88.5476 28.8992 86.7543 28.8992C84.9442 28.8992 83.461 28.4299 82.3046 27.4914C81.1649 26.5361 80.5951 25.2623 80.5951 23.6702C80.5951 22.6311 80.8465 21.6674 81.3493 20.7791C81.8521 19.8908 82.5811 19.1702 83.5364 18.6171C82.9666 17.7121 82.6817 16.7316 82.6817 15.6758C82.6817 14.1842 83.2012 12.9691 84.2403 12.0306C85.2794 11.0752 86.5951 10.5976 88.1872 10.5976C89.4442 10.5976 90.5671 10.9244 91.5559 11.578C92.5615 12.2149 93.3073 13.1451 93.7934 14.3685L90.8269 16.078C90.3409 14.6702 89.4777 13.9663 88.2375 13.9663C87.6342 13.9663 87.1314 14.1423 86.7291 14.4942C86.3437 14.8462 86.1509 15.2903 86.1509 15.8266C86.1509 16.2959 86.2599 16.7233 86.4778 17.1087C86.7124 17.4942 87.0811 17.9551 87.5839 18.4914L91.3548 22.6143C91.7235 21.8266 92.0085 20.8545 92.2096 19.6981L95.1258 21.3573C94.8073 22.7149 94.2962 23.9467 93.5922 25.0528L95.8548 27.5417ZM86.9805 25.7065C87.852 25.7065 88.6314 25.497 89.3185 25.078L85.5224 20.9551C85.4889 20.9216 85.4722 20.8964 85.4722 20.8797C84.5504 21.4495 84.0895 22.2623 84.0895 23.3182C84.0895 24.0389 84.3325 24.6171 84.8185 25.0528C85.3213 25.4886 86.042 25.7065 86.9805 25.7065ZM107.667 28.5472L104.122 22.4383H101.482V28.5472H98.0131V10.9495H105.052C106.678 10.9495 108.061 11.5194 109.2 12.659C110.34 13.7987 110.91 15.173 110.91 16.7819C110.91 17.8713 110.6 18.8853 109.979 19.8238C109.359 20.7456 108.538 21.4411 107.516 21.9104L111.412 28.5472H107.667ZM101.482 14.1926V19.3964H105.052C105.706 19.3964 106.267 19.145 106.736 18.6423C107.206 18.1227 107.44 17.5026 107.44 16.7819C107.44 16.0613 107.206 15.4495 106.736 14.9467C106.267 14.4439 105.706 14.1926 105.052 14.1926H101.482ZM122.219 15.9775H125.462V28.5472H122.219V27.064C121.247 28.2875 119.881 28.8992 118.121 28.8992C116.445 28.8992 115.004 28.2623 113.797 26.9886C112.607 25.6981 112.012 24.1227 112.012 22.2623C112.012 20.402 112.607 18.835 113.797 17.5613C115.004 16.2708 116.445 15.6255 118.121 15.6255C119.881 15.6255 121.247 16.2372 122.219 17.4607V15.9775ZM116.236 24.8266C116.89 25.4802 117.719 25.807 118.725 25.807C119.73 25.807 120.56 25.4802 121.214 24.8266C121.884 24.1562 122.219 23.3014 122.219 22.2623C122.219 21.2232 121.884 20.3769 121.214 19.7233C120.56 19.0529 119.73 18.7177 118.725 18.7177C117.719 18.7177 116.89 19.0529 116.236 19.7233C115.582 20.3769 115.255 21.2232 115.255 22.2623C115.255 23.3014 115.582 24.1562 116.236 24.8266ZM135.593 19.0948H132.752V24.3238C132.752 24.7595 132.861 25.078 133.079 25.2791C133.297 25.4802 133.615 25.5975 134.034 25.631C134.453 25.6478 134.973 25.6394 135.593 25.6059V28.5472C133.364 28.7986 131.788 28.5891 130.867 27.9187C129.962 27.2484 129.509 26.05 129.509 24.3238V19.0948H127.322V15.9775H129.509V13.4384L132.752 12.4579V15.9775H135.593V19.0948ZM140.227 23.5947C140.662 25.1702 141.844 25.9579 143.771 25.9579C145.012 25.9579 145.95 25.5389 146.587 24.7009L149.202 26.2093C147.961 28.0025 146.134 28.8992 143.721 28.8992C141.643 28.8992 139.975 28.2707 138.718 27.0137C137.461 25.7567 136.833 24.173 136.833 22.2623C136.833 20.3685 137.453 18.7931 138.693 17.5361C139.933 16.2624 141.526 15.6255 143.47 15.6255C145.313 15.6255 146.83 16.2624 148.02 17.5361C149.227 18.8098 149.83 20.3853 149.83 22.2623C149.83 22.6813 149.788 23.1255 149.704 23.5947H140.227ZM140.176 21.0808H146.587C146.403 20.226 146.017 19.5892 145.431 19.1702C144.861 18.7512 144.207 18.5417 143.47 18.5417C142.598 18.5417 141.878 18.7679 141.308 19.2205C140.738 19.6562 140.361 20.2763 140.176 21.0808Z" fill="#312F45"/>
<path d="M35.3917 23.1447C35.9703 23.1447 36.5362 23.2002 37.086 23.3C35.5083 30.7406 29.418 36.5124 21.8136 37.6174C21.7883 37.3359 21.7735 37.051 21.7735 36.7629V32.5724C21.7737 27.3659 25.9947 23.1447 31.2013 23.1447H35.3917ZM19.1544 1.14764C27.6713 1.14764 34.8309 6.95586 36.8898 14.8273C36.3959 14.7862 35.8962 14.7648 35.3917 14.7648H31.2013C29.5269 14.7648 27.9065 14.9959 26.3702 15.4279C24.9519 12.9071 22.2528 11.2033 19.1544 11.2033C14.5842 11.2036 10.8791 14.9084 10.879 19.4787C10.879 22.3306 12.3224 24.8451 14.5177 26.3332C13.7912 28.2749 13.3937 30.3772 13.3937 32.5724V36.7629C13.3937 36.8039 13.3944 36.8449 13.3946 36.8859C6.09254 34.4708 0.823349 27.5905 0.823349 19.4787C0.823472 9.35473 9.03047 1.14789 19.1544 1.14764Z" fill="#6F64FE"/>
<path d="M37.7962 15.0253L38.3078 15.0322L38.3228 14.4439L37.7962 14.437H33.0656C21.7985 14.437 12.3691 23.8185 12.3691 35.0282L12.3622 38.6374L12.3691 39.1614L12.9605 39.1465L12.9535 38.6374L12.9605 35.0282C12.9605 24.1434 22.1251 15.0253 33.0656 15.0253H37.7962Z" fill="#6F64FE"/>
</svg>
