<svg width="61" height="60" viewBox="0 0 61 60" fill="none" xmlns="http://www.w3.org/2000/svg">
<path d="M22.5607 37.0607C21.9749 36.4749 22.0499 35.4501 22.7281 34.7719L35.8282 21.6718C36.5065 20.9935 37.5312 20.9185 38.117 21.5043C38.7028 22.0901 38.6278 23.1148 37.9495 23.7931L24.8495 36.8932C24.1712 37.5715 23.1464 37.6464 22.5607 37.0607Z" fill="#6F64FE"/>
<path d="M38.4393 37.0607C39.0251 36.4749 38.9501 35.4501 38.2719 34.7719L25.1718 21.6718C24.4935 20.9935 23.4688 20.9185 22.883 21.5043C22.2972 22.0901 22.3722 23.1148 23.0505 23.7931L36.1505 36.8932C36.8288 37.5715 37.8536 37.6464 38.4393 37.0607Z" fill="#6F64FE"/>
</svg>
