<svg width="12" height="16" viewBox="0 0 12 16" fill="none" xmlns="http://www.w3.org/2000/svg">
<mask id="path-1-inside-1_2_313" fill="white">
<path d="M6.10547 0C9.36097 0 11.9999 2.63905 12 5.89453C12 11.7893 7.36863 16 6.10547 16C4.42112 15.9996 0.210938 10.5259 0.210938 5.89453C0.211049 2.63912 2.85006 0.000111067 6.10547 0ZM6.10547 4.89453C5.55334 4.89464 5.10557 5.3424 5.10547 5.89453C5.10547 6.44675 5.55327 6.89443 6.10547 6.89453C6.65775 6.89453 7.10547 6.44682 7.10547 5.89453C7.10536 5.34234 6.65769 4.89453 6.10547 4.89453Z"/>
</mask>
<path d="M6.10547 0V-1H6.10543L6.10547 0ZM12 5.89453H13V5.8945L12 5.89453ZM6.10547 16L6.1052 17H6.10547V16ZM0.210938 5.89453L-0.789062 5.8945V5.89453H0.210938ZM6.10547 4.89453V3.89453H6.10528L6.10547 4.89453ZM5.10547 5.89453L4.10547 5.89434V5.89453H5.10547ZM6.10547 6.89453L6.10528 7.89453H6.10547V6.89453ZM7.10547 5.89453H8.10547V5.89434L7.10547 5.89453ZM6.10547 0V1C8.80865 1 10.9999 3.19131 11 5.89457L12 5.89453L13 5.8945C12.9999 2.08679 9.91329 -1 6.10547 -1V0ZM12 5.89453H11C11 8.57829 9.94385 10.9019 8.72075 12.5654C8.11014 13.3959 7.47301 14.0407 6.93672 14.4675C6.66774 14.6815 6.4393 14.8286 6.26591 14.9173C6.06724 15.019 6.02654 15 6.10547 15V16V17C6.50018 17 6.88053 16.8494 7.17691 16.6978C7.49858 16.5332 7.8392 16.3053 8.18205 16.0325C8.8694 15.4855 9.62696 14.7092 10.3321 13.7502C11.7405 11.8346 13 9.10551 13 5.89453H12ZM6.10547 16L6.10573 15C6.14525 15 6.07402 15.0076 5.86677 14.8885C5.67534 14.7785 5.43354 14.5982 5.15377 14.3388C4.5956 13.8213 3.96266 13.0603 3.36555 12.1397C2.15827 10.2784 1.21094 7.94301 1.21094 5.89453H0.210938H-0.789062C-0.789062 8.47744 0.368695 11.1946 1.6876 13.228C2.35357 14.2548 3.089 15.1518 3.79396 15.8054C4.14576 16.1316 4.50921 16.4152 4.87042 16.6227C5.21581 16.8211 5.6446 16.9999 6.1052 17L6.10547 16ZM0.210938 5.89453L1.21094 5.89457C1.21103 3.19141 3.40235 1.00009 6.1055 1L6.10547 0L6.10543 -1C2.29777 -0.99987 -0.788933 2.08683 -0.789062 5.8945L0.210938 5.89453ZM6.10547 4.89453L6.10528 3.89453C5.00101 3.89474 4.10568 4.79008 4.10547 5.89434L5.10547 5.89453L6.10547 5.89472L6.10566 5.89453L6.10547 4.89453ZM5.10547 5.89453H4.10547C4.10547 6.99923 5.00114 7.89432 6.10528 7.89453L6.10547 6.89453L6.10566 5.89453H6.10547H5.10547ZM6.10547 6.89453V7.89453C7.21004 7.89453 8.10547 6.9991 8.10547 5.89453H7.10547H6.10547V6.89453ZM7.10547 5.89453L8.10547 5.89434C8.10526 4.7902 7.21016 3.89453 6.10547 3.89453V4.89453V5.89453V5.89472L7.10547 5.89453Z" fill="white" mask="url(#path-1-inside-1_2_313)"/>
</svg>
