<svg width="33" height="32" viewBox="0 0 33 32" fill="none" xmlns="http://www.w3.org/2000/svg">
<g filter="url(#filter0_d_660_231)">
<path d="M16.1538 0.899414L18.0392 3.17472L20.5355 1.59341L21.6255 4.33998L24.4883 3.60745L24.6762 6.55643L27.6252 6.74439L26.8927 9.60712L29.6393 10.6972L28.0579 13.1934L30.3333 15.0789L28.0579 16.9643L29.6393 19.4605L26.8927 20.5506L27.6252 23.4133L24.6762 23.6013L24.4883 26.5503L21.6255 25.8177L20.5355 28.5643L18.0392 26.983L16.1538 29.2583L14.2684 26.983L11.7721 28.5643L10.6821 25.8177L7.81934 26.5503L7.63139 23.6013L4.6824 23.4133L5.41493 20.5506L2.66836 19.4605L4.24967 16.9643L1.97437 15.0789L4.24967 13.1934L2.66836 10.6972L5.41493 9.60712L4.6824 6.74439L7.63139 6.55643L7.81934 3.60745L10.6821 4.33998L11.7721 1.59341L14.2684 3.17472L16.1538 0.899414Z" fill="url(#paint0_linear_660_231)"/>
<path d="M11.6329 19.1372H17.0455V21.5505H9.10083V8.75269H16.9538V11.166H11.6329V14.7311H16.4951V17.1079H11.6329V19.1372Z" fill="url(#paint1_linear_660_231)"/>
<path d="M21.928 21.5505L19.3409 17.1079H17.4144V21.5505H14.8824V8.75269H20.0198C21.2063 8.75269 22.2155 9.16709 23.0472 9.99591C23.879 10.8247 24.2949 11.8242 24.2949 12.9943C24.2949 13.7865 24.0686 14.5239 23.616 15.2065C23.1634 15.8768 22.5641 16.3826 21.8179 16.7239L24.6619 21.5505H21.928ZM17.4144 11.1111V14.8957H20.0198C20.4969 14.8957 20.9066 14.7128 21.2491 14.3472C21.5916 13.9693 21.7629 13.5184 21.7629 12.9943C21.7629 12.4702 21.5916 12.0253 21.2491 11.6596C20.9066 11.294 20.4969 11.1111 20.0198 11.1111H17.4144Z" fill="url(#paint2_linear_660_231)"/>
</g>
<defs>
<filter id="filter0_d_660_231" x="0.274365" y="0.199414" width="31.7589" height="31.7589" filterUnits="userSpaceOnUse" color-interpolation-filters="sRGB">
<feFlood flood-opacity="0" result="BackgroundImageFix"/>
<feColorMatrix in="SourceAlpha" type="matrix" values="0 0 0 0 0 0 0 0 0 0 0 0 0 0 0 0 0 0 127 0" result="hardAlpha"/>
<feOffset dy="1"/>
<feGaussianBlur stdDeviation="0.85"/>
<feComposite in2="hardAlpha" operator="out"/>
<feColorMatrix type="matrix" values="0 0 0 0 0.0965831 0 0 0 0 0.0873706 0 0 0 0 0.216346 0 0 0 0.2 0"/>
<feBlend mode="normal" in2="BackgroundImageFix" result="effect1_dropShadow_660_231"/>
<feBlend mode="normal" in="SourceGraphic" in2="effect1_dropShadow_660_231" result="shape"/>
</filter>
<linearGradient id="paint0_linear_660_231" x1="16.9744" y1="4.89941" x2="27.9744" y2="28.8994" gradientUnits="userSpaceOnUse">
<stop stop-color="#FFCC00"/>
<stop offset="0.289337" stop-color="#FFD11B"/>
<stop offset="0.295025" stop-color="#FFE374"/>
<stop offset="1" stop-color="#FFDF5E"/>
</linearGradient>
<linearGradient id="paint1_linear_660_231" x1="15.9744" y1="5.39941" x2="22.9744" y2="21.8994" gradientUnits="userSpaceOnUse">
<stop stop-color="#222222"/>
<stop offset="0.41764" stop-color="#2B2848"/>
<stop offset="0.448295" stop-color="#413E71"/>
<stop offset="1" stop-color="#3F37A0"/>
</linearGradient>
<linearGradient id="paint2_linear_660_231" x1="15.9744" y1="5.39941" x2="22.9744" y2="21.8994" gradientUnits="userSpaceOnUse">
<stop stop-color="#222222"/>
<stop offset="0.41764" stop-color="#2B2848"/>
<stop offset="0.448295" stop-color="#413E71"/>
<stop offset="1" stop-color="#3F37A0"/>
</linearGradient>
</defs>
</svg>
