<svg width="41" height="41" viewBox="0 0 41 41" fill="none" xmlns="http://www.w3.org/2000/svg">
<path d="M38.3486 24.4043C38.9904 24.4043 39.6187 24.4645 40.2285 24.5752C38.4783 32.8299 31.7225 39.2332 23.2861 40.459C23.2581 40.1469 23.2422 39.8311 23.2422 39.5117V34.8633C23.2422 29.087 27.9249 24.4043 33.7012 24.4043H38.3486ZM20.3369 0C29.7854 0.000125736 37.7277 6.44423 40.0117 15.1768C39.4635 15.1311 38.9086 15.1074 38.3486 15.1074H33.7012C31.8435 15.1074 30.0452 15.3634 28.3408 15.8428C26.7674 13.0464 23.774 11.1564 20.3369 11.1562C15.2665 11.1562 11.1553 15.2665 11.1553 20.3369C11.1553 23.5008 12.7559 26.2915 15.1914 27.9424C14.3857 30.0962 13.9453 32.4284 13.9453 34.8633V39.5117C13.9453 39.557 13.946 39.6022 13.9463 39.6475C5.84558 36.9682 1.40414e-05 29.3359 0 20.3369C0 9.1053 9.1053 0 20.3369 0Z" fill="#6F64FE"/>
</svg>
