<svg width="218" height="219" viewBox="0 0 218 219" fill="none" xmlns="http://www.w3.org/2000/svg">
<path d="M207.202 132.405C210.665 132.405 214.056 132.718 217.347 133.316C207.915 177.829 171.476 212.365 125.984 218.97C125.832 217.284 125.755 215.577 125.755 213.851V188.791C125.755 157.65 151 132.405 182.141 132.405H207.202ZM110.092 0.837646C161.032 0.83774 203.857 35.5778 216.17 82.658C213.213 82.4115 210.222 82.2839 207.202 82.2839H182.141C172.131 82.2839 162.443 83.665 153.258 86.2468C144.776 71.1681 128.625 60.9813 110.092 60.9812C82.7564 60.9812 60.5963 83.1413 60.5963 110.477C60.5964 127.535 69.2249 142.576 82.3551 151.476C78.0107 163.089 75.6344 175.662 75.6344 188.791V213.851C75.6344 214.098 75.6366 214.345 75.6383 214.592C31.9655 200.147 0.452897 158.993 0.452759 110.477C0.452759 49.9251 49.5402 0.837646 110.092 0.837646Z" fill="#6F64FE"/>
</svg>
