<svg width="94" height="18" viewBox="0 0 94 18" fill="none" xmlns="http://www.w3.org/2000/svg">
<path d="M8.80762 0.578857L10.716 6.45221L16.8916 6.45221L11.8954 10.0821L13.8038 15.9555L8.80762 12.3256L3.81144 15.9555L5.71981 10.0821L0.723637 6.45221L6.89925 6.45221L8.80762 0.578857Z" fill="#FFCC00"/>
<path d="M27.8076 0.578857L29.716 6.45221L35.8916 6.45221L30.8954 10.0821L32.8038 15.9555L27.8076 12.3256L22.8114 15.9555L24.7198 10.0821L19.7236 6.45221L25.8992 6.45221L27.8076 0.578857Z" fill="#FFCC00"/>
<path d="M46.8076 0.578857L48.716 6.45221L54.8916 6.45221L49.8954 10.0821L51.8038 15.9555L46.8076 12.3256L41.8114 15.9555L43.7198 10.0821L38.7236 6.45221L44.8992 6.45221L46.8076 0.578857Z" fill="#FFCC00"/>
<path d="M65.8076 0.578857L67.716 6.45221L73.8916 6.45221L68.8954 10.0821L70.8038 15.9555L65.8076 12.3256L60.8114 15.9555L62.7198 10.0821L57.7236 6.45221L63.8992 6.45221L65.8076 0.578857Z" fill="#FFCC00"/>
<path d="M84.8076 0.578857L86.716 6.45221L92.8916 6.45221L87.8954 10.0821L89.8038 15.9555L84.8076 12.3256L79.8114 15.9555L81.7198 10.0821L76.7236 6.45221L82.8992 6.45221L84.8076 0.578857Z" fill="#FFCC00"/>
</svg>
